<svg width="1200" height="630" xmlns="http://www.w3.org/2000/svg">
  <defs>
    <linearGradient id="bgGrad" x1="0" y1="0" x2="1" y2="1">
      <stop offset="0%" stop-color="#0B1120"/>
      <stop offset="100%" stop-color="#0F1B35"/>
    </linearGradient>
    <pattern id="grid" width="60" height="60" patternUnits="userSpaceOnUse">
      <path d="M 60 0 L 0 0 0 60" fill="none" stroke="rgba(255,255,255,0.03)" stroke-width="1"/>
    </pattern>
  </defs>
  <rect width="1200" height="630" fill="url(#bgGrad)"/>
  <rect width="1200" height="630" fill="url(#grid)"/>
  <g transform="translate(540, 100) scale(1.5)">
    <path d="M24 4C24 4 10 20 10 30C10 37.732 16.268 44 24 44C31.732 44 38 37.732 38 30C38 20 24 4 24 4Z" fill="#3B82F6"/>
    <path d="M16 30L20 26L24 32L28 24L32 28" stroke="#0EA5E9" stroke-width="2.5" stroke-linecap="round" stroke-linejoin="round" fill="none"/>
    <path d="M20 34L23 37L29 31" stroke="white" stroke-width="2.5" stroke-linecap="round" stroke-linejoin="round" fill="none"/>
  </g>
  <text x="600" y="225" text-anchor="middle" fill="#10B981"
    font-family="Inter, system-ui, sans-serif" font-size="16" font-weight="600" letter-spacing="3">
    FOR HOMEOWNERS
  </text>
  <text x="600" y="300" text-anchor="middle" fill="white"
    font-family="Inter, system-ui, sans-serif" font-size="46" font-weight="700">
    Earn Rebates by Producing
  </text>
  <text x="600" y="360" text-anchor="middle" fill="white"
    font-family="Inter, system-ui, sans-serif" font-size="46" font-weight="700">
    Your Own Clean Water
  </text>
  <text x="600" y="420" text-anchor="middle" fill="#94A3B8"
    font-family="Inter, system-ui, sans-serif" font-size="22" font-weight="400">
    Verified credits. Automatic metering. Rebates on your water bill.
  </text>
  <rect x="0" y="570" width="1200" height="60" fill="rgba(0,0,0,0.3)"/>
  <text x="600" y="608" text-anchor="middle" font-family="Inter, system-ui, sans-serif" font-size="20">
    <tspan fill="#F1F5F9" font-weight="700">WaterQuality</tspan><tspan fill="#0EA5E9" font-weight="400">.Trading</tspan>
  </text>
</svg>
